<?xml version="1.0" encoding="UTF-8" standalone="no"?>
<!DOCTYPE svg PUBLIC "-//W3C//DTD SVG 1.1//EN"
 "http://www.w3.org/Graphics/SVG/1.1/DTD/svg11.dtd">
<!-- Generated by graphviz version 2.40.1 (20161225.0304)
 -->
<!-- Title: dependencies Pages: 1 -->
<svg width="504pt" height="211pt"
 viewBox="0.00 0.00 504.00 211.00" xmlns="http://www.w3.org/2000/svg" xmlns:xlink="http://www.w3.org/1999/xlink">
<g id="graph0" class="graph" transform="scale(1 1) rotate(0) translate(4 207)">
<title>dependencies</title>
<polygon fill="#ffffff" stroke="transparent" points="-4,4 -4,-207 500,-207 500,4 -4,4"/>
<text text-anchor="start" x="227.0091" y="-42.4" font-family="sans-serif" font-weight="bold" font-size="14.00" fill="#000000">Legend</text>
<polygon fill="#ffffb3" stroke="transparent" points="14,-10 14,-30 34,-30 34,-10 14,-10"/>
<text text-anchor="start" x="37.629" y="-15.4" font-family="sans-serif" font-size="14.00" fill="#000000"> &#160;Declarations</text>
<polygon fill="#8dd3c7" stroke="transparent" points="127,-10 127,-30 147,-30 147,-10 127,-10"/>
<text text-anchor="start" x="150.7251" y="-15.4" font-family="sans-serif" font-size="14.00" fill="#000000"> &#160;Module</text>
<polygon fill="#80b1d3" stroke="transparent" points="213,-10 213,-30 233,-30 233,-10 213,-10"/>
<text text-anchor="start" x="236.7812" y="-15.4" font-family="sans-serif" font-size="14.00" fill="#000000"> &#160;Bootstrap</text>
<polygon fill="#fdb462" stroke="transparent" points="310,-10 310,-30 330,-30 330,-10 310,-10"/>
<text text-anchor="start" x="333.6732" y="-15.4" font-family="sans-serif" font-size="14.00" fill="#000000"> &#160;Providers</text>
<polygon fill="#fb8072" stroke="transparent" points="406,-10 406,-30 426,-30 426,-10 406,-10"/>
<text text-anchor="start" x="429.7258" y="-15.4" font-family="sans-serif" font-size="14.00" fill="#000000"> &#160;Exports</text>
<g id="clust1" class="cluster">
<title>cluster_ApiModule</title>
<polygon fill="none" stroke="#000000" stroke-dasharray="1,5" points="76.5,-70 76.5,-195 419.5,-195 419.5,-70 76.5,-70"/>
</g>
<g id="clust3" class="cluster">
<title>cluster_ApiModule_imports</title>
<polygon fill="none" stroke="#000000" points="84.5,-78 84.5,-130 411.5,-130 411.5,-78 84.5,-78"/>
</g>
<!-- NotesModule -->
<g id="node1" class="node">
<title>NotesModule</title>
<polygon fill="#8dd3c7" stroke="#000000" points="403.7064,-122 400.7064,-126 379.7064,-126 376.7064,-122 311.2936,-122 311.2936,-86 403.7064,-86 403.7064,-122"/>
<text text-anchor="middle" x="357.5" y="-99.8" font-family="Times,serif" font-size="14.00" fill="#000000">NotesModule</text>
</g>
<!-- ApiModule -->
<g id="node4" class="node">
<title>ApiModule</title>
<polygon fill="#8dd3c7" stroke="#000000" points="287.5483,-187 284.5483,-191 263.5483,-191 260.5483,-187 207.4517,-187 207.4517,-151 287.5483,-151 287.5483,-187"/>
<text text-anchor="middle" x="247.5" y="-164.8" font-family="Times,serif" font-size="14.00" fill="#000000">ApiModule</text>
</g>
<!-- NotesModule&#45;&gt;ApiModule -->
<g id="edge1" class="edge">
<title>NotesModule&#45;&gt;ApiModule</title>
<path fill="none" stroke="#000000" d="M357.5,-122.1061C357.5,-141.3391 357.5,-169 357.5,-169 357.5,-169 297.8353,-169 297.8353,-169"/>
<polygon fill="#000000" stroke="#000000" points="297.8354,-165.5001 287.8353,-169 297.8353,-172.5001 297.8354,-165.5001"/>
</g>
<!-- RolesModule -->
<g id="node2" class="node">
<title>RolesModule</title>
<polygon fill="#8dd3c7" stroke="#000000" points="293.4372,-122 290.4372,-126 269.4372,-126 266.4372,-122 201.5628,-122 201.5628,-86 293.4372,-86 293.4372,-122"/>
<text text-anchor="middle" x="247.5" y="-99.8" font-family="Times,serif" font-size="14.00" fill="#000000">RolesModule</text>
</g>
<!-- RolesModule&#45;&gt;ApiModule -->
<g id="edge2" class="edge">
<title>RolesModule&#45;&gt;ApiModule</title>
<path fill="none" stroke="#000000" d="M247.5,-122.1061C247.5,-122.1061 247.5,-140.991 247.5,-140.991"/>
<polygon fill="#000000" stroke="#000000" points="244.0001,-140.9909 247.5,-150.991 251.0001,-140.991 244.0001,-140.9909"/>
</g>
<!-- UsersModule -->
<g id="node3" class="node">
<title>UsersModule</title>
<polygon fill="#8dd3c7" stroke="#000000" points="184.4218,-122 181.4218,-126 160.4218,-126 157.4218,-122 92.5782,-122 92.5782,-86 184.4218,-86 184.4218,-122"/>
<text text-anchor="middle" x="138.5" y="-99.8" font-family="Times,serif" font-size="14.00" fill="#000000">UsersModule</text>
</g>
<!-- UsersModule&#45;&gt;ApiModule -->
<g id="edge3" class="edge">
<title>UsersModule&#45;&gt;ApiModule</title>
<path fill="none" stroke="#000000" d="M138.5,-122.1061C138.5,-141.3391 138.5,-169 138.5,-169 138.5,-169 197.2221,-169 197.2221,-169"/>
<polygon fill="#000000" stroke="#000000" points="197.2221,-172.5001 207.2221,-169 197.2221,-165.5001 197.2221,-172.5001"/>
</g>
</g>
</svg>
